<svg version="1.2" xmlns="http://www.w3.org/2000/svg" viewBox="0 0 674 535" width="674" height="535">
	<defs>
		<clipPath clipPathUnits="userSpaceOnUse" id="cp1">
			<path d="m431.45 113v499.37h-638.45v-499.37z"/>
		</clipPath>
	</defs>
	<style>
		tspan { white-space:pre } 
		.t0 { font-size: 150px;fill: #45777b;font-weight: 400;font-family: "DejaVuSans", "DejaVu Sans" } 
		.t1 { font-size: 150px;fill: #f5e229;font-weight: 400;font-family: "DejaVuSans", "DejaVu Sans" } 
		.s2 { fill: #bf1b20;stroke: #211d1e;stroke-miterlimit:3.86400008;stroke-width: 6.1 } 
	</style>
	<g id="g25972">
		<g id="letras">
			<text id="OTG" style="transform: matrix(2.07,0,0,2.07,9.773,285.131)">
				<tspan x="0" y="0" class="t0">O</tspan><tspan  y="0" class="t0">T</tspan><tspan  y="0" class="t0">G</tspan><tspan  y="0" class="t0">
</tspan>
			</text>
			<text id="OTG" style="transform: matrix(2.07,0,0,2.07,-1.533,272.57)">
				<tspan x="0" y="0" class="t1">O</tspan><tspan  y="0" class="t1">T</tspan><tspan  y="0" class="t1">G</tspan><tspan  y="0" class="t1">
</tspan>
			</text>
		</g>
		<g id="Clip-Path: g24373" clip-path="url(#cp1)">
			<g id="g24373">
				<path id="path24375" class="s2" d="m250.32 335.8c3.06 13.02 8.42 49.78 23.74 13.02 27.04-65.02 52.16-89.15 90.23-142.99 5.05-7.2 6.28-12.79 13.02-18.38 11.56-9.58 24.12-16.09 37.45-9.2 16.62 8.58 16.85 33.24 6.89 47.41-10.72 15.32-29.03 17.62-35.92 26.04-33.47 40.9-46.26 68.55-71.92 114.74-7.04 12.71-12.63 19.22-17.61 32.85-5.36 14.94-5.36 19.15-7.66 39.83-1.3 11.72-3.83 23.67-17.54 25.2-19.91 2.3-29.49-13.94-34.47-29.03-18.38-55.83-35.15-127.75-34.39-137.71 0.77-10.34 9.58-16.77 19.84-17.61 10.88-0.85 20.83 5.36 22.98 16.08 1.53 7.66 2.91 29.41 5.36 39.75z"/>
			</g>
		</g>
		<path id="path24390" class="s2" d="m136.35 237.92c5.06-4.75 9.12-7.2 16.01-7.66 8.04-0.46 13.79 0 19.15 7.66 0.46 0.62 35.23-13.02 47.41-29.79 12.86-17.69 53.61 5.36 26.04 27.49-11.49 9.27-38.14 14.71-59.67 29.11-4.59 3.06 9.96 100.18 2.3 172.1-0.46 3.9 4.06 21.82 6.13 33.62 3.83 22.21-2.3 32.93-19.15 35.23-15.47 2.07-25.96 1.53-30.56-25.27-2.68-15.24-6.13-36.69-2.3-55.84 11.42-57.36-2.29-130.81-7.65-129.28-27.58 7.89-32.33 14.93-50.48 28.34-16.01 11.71-19.15 40.51-37.53 34.39-9.8-3.22-18.46-15.63-15.31-27.5 2.91-10.72 12.56-13.1 22.97-16.85 21.45-7.66 26.2-20.83 44.35-32.17 11.41-7.04 28.34-13.71 29.87-16.77 2.45-4.98 0.38-19.3 8.42-26.81z"/>
	</g>
</svg>